frame:0    pts:64000   pts_time:5
lavfi.scene_score=0.727336
frame:1    pts:89088   pts_time:6.96
lavfi.scene_score=0.483294
frame:2    pts:110080  pts_time:8.6
lavfi.scene_score=0.445504
frame:3    pts:144384  pts_time:11.28
lavfi.scene_score=0.426686
frame:4    pts:185856  pts_time:14.52
lavfi.scene_score=0.513199
frame:5    pts:198144  pts_time:15.48
lavfi.scene_score=0.281946
frame:6    pts:210432  pts_time:16.44
lavfi.scene_score=0.369640
frame:7    pts:220672  pts_time:17.24
lavfi.scene_score=0.413765
frame:8    pts:234496  pts_time:18.32
lavfi.scene_score=0.311610
frame:9    pts:244224  pts_time:19.08
lavfi.scene_score=0.586154
frame:10   pts:257536  pts_time:20.12
lavfi.scene_score=0.532534
frame:11   pts:266240  pts_time:20.8
lavfi.scene_score=0.282849
frame:12   pts:281600  pts_time:22
lavfi.scene_score=0.365802
frame:13   pts:295424  pts_time:23.08
lavfi.scene_score=0.494607
frame:14   pts:303104  pts_time:23.68
lavfi.scene_score=0.498575
frame:15   pts:310272  pts_time:24.24
lavfi.scene_score=0.435095
frame:16   pts:312832  pts_time:24.44
lavfi.scene_score=0.652258
frame:17   pts:325632  pts_time:25.44
lavfi.scene_score=0.522240
frame:18   pts:340992  pts_time:26.64
lavfi.scene_score=0.561956
frame:19   pts:355328  pts_time:27.76
lavfi.scene_score=0.360337
frame:20   pts:366592  pts_time:28.64
lavfi.scene_score=0.372552
frame:21   pts:375808  pts_time:29.36
lavfi.scene_score=0.361710
frame:22   pts:385024  pts_time:30.08
lavfi.scene_score=0.403398
frame:23   pts:391680  pts_time:30.6
lavfi.scene_score=0.388520
frame:24   pts:397824  pts_time:31.08
lavfi.scene_score=0.383867
frame:25   pts:414208  pts_time:32.36
lavfi.scene_score=0.316042
frame:26   pts:425984  pts_time:33.28
lavfi.scene_score=0.359588
frame:27   pts:444928  pts_time:34.76
lavfi.scene_score=0.352271
frame:28   pts:453120  pts_time:35.4
lavfi.scene_score=0.331129
frame:29   pts:461824  pts_time:36.08
lavfi.scene_score=0.621309
frame:30   pts:480768  pts_time:37.56
lavfi.scene_score=0.581684
frame:31   pts:489472  pts_time:38.24
lavfi.scene_score=0.425708
frame:32   pts:510976  pts_time:39.92
lavfi.scene_score=0.390009
frame:33   pts:520704  pts_time:40.68
lavfi.scene_score=0.371660
frame:34   pts:559104  pts_time:43.68
lavfi.scene_score=0.375224
frame:35   pts:583680  pts_time:45.6
lavfi.scene_score=0.500349
frame:36   pts:602624  pts_time:47.08
lavfi.scene_score=0.515942
frame:37   pts:610816  pts_time:47.72
lavfi.scene_score=0.471014
frame:38   pts:630784  pts_time:49.28
lavfi.scene_score=0.298819
frame:39   pts:640512  pts_time:50.04
lavfi.scene_score=0.352178
frame:40   pts:670208  pts_time:52.36
lavfi.scene_score=0.437680
frame:41   pts:678400  pts_time:53
lavfi.scene_score=0.311985
frame:42   pts:685568  pts_time:53.56
lavfi.scene_score=0.256549
frame:43   pts:692736  pts_time:54.12
lavfi.scene_score=0.276448
frame:44   pts:704000  pts_time:55
lavfi.scene_score=0.384036
frame:45   pts:719360  pts_time:56.2
lavfi.scene_score=0.392354
frame:46   pts:727040  pts_time:56.8
lavfi.scene_score=0.438664
frame:47   pts:735232  pts_time:57.44
lavfi.scene_score=0.510253
frame:48   pts:741888  pts_time:57.96
lavfi.scene_score=0.277207
frame:49   pts:750080  pts_time:58.6
lavfi.scene_score=0.424471
frame:50   pts:761856  pts_time:59.52
lavfi.scene_score=0.342972
frame:51   pts:771584  pts_time:60.28
lavfi.scene_score=0.389595
frame:52   pts:787456  pts_time:61.52
lavfi.scene_score=0.380253
frame:53   pts:795136  pts_time:62.12
lavfi.scene_score=0.362789
frame:54   pts:803328  pts_time:62.76
lavfi.scene_score=0.315130
frame:55   pts:809984  pts_time:63.28
lavfi.scene_score=0.258686
frame:56   pts:815104  pts_time:63.68
lavfi.scene_score=0.602109
frame:57   pts:817664  pts_time:63.88
lavfi.scene_score=0.359516
frame:58   pts:820224  pts_time:64.08
lavfi.scene_score=0.665973
frame:59   pts:822784  pts_time:64.28
lavfi.scene_score=0.639070
frame:60   pts:825344  pts_time:64.48
lavfi.scene_score=0.327686
frame:61   pts:827904  pts_time:64.68
lavfi.scene_score=0.733229
frame:62   pts:848896  pts_time:66.32
lavfi.scene_score=0.304917
frame:63   pts:871936  pts_time:68.12
lavfi.scene_score=0.375096
frame:64   pts:899584  pts_time:70.28
lavfi.scene_score=0.371858
frame:65   pts:912384  pts_time:71.28
lavfi.scene_score=0.460063
frame:66   pts:923648  pts_time:72.16
lavfi.scene_score=0.471715
frame:67   pts:945152  pts_time:73.84
lavfi.scene_score=0.432355
frame:68   pts:970752  pts_time:75.84
lavfi.scene_score=0.253042
frame:69   pts:1038848 pts_time:81.16
lavfi.scene_score=0.330312
frame:70   pts:1044480 pts_time:81.6
lavfi.scene_score=0.340196
frame:71   pts:1050112 pts_time:82.04
lavfi.scene_score=0.257411
frame:72   pts:1057280 pts_time:82.6
lavfi.scene_score=0.310623
frame:73   pts:1072640 pts_time:83.8
lavfi.scene_score=0.469768
frame:74   pts:1122816 pts_time:87.72
lavfi.scene_score=0.328927
frame:75   pts:1129984 pts_time:88.28
lavfi.scene_score=0.633678
frame:76   pts:1131520 pts_time:88.4
lavfi.scene_score=0.912927
frame:77   pts:1147392 pts_time:89.64
lavfi.scene_score=0.434047
frame:78   pts:1162752 pts_time:90.84
lavfi.scene_score=0.395454
frame:79   pts:1177600 pts_time:92
lavfi.scene_score=0.421684
frame:80   pts:1193472 pts_time:93.24
lavfi.scene_score=0.582779
frame:81   pts:1208320 pts_time:94.4
lavfi.scene_score=0.400727
frame:82   pts:1219584 pts_time:95.28
lavfi.scene_score=0.291211
frame:83   pts:1243648 pts_time:97.16
lavfi.scene_score=0.347573
frame:84   pts:1282048 pts_time:100.16
lavfi.scene_score=0.348404
frame:85   pts:1314304 pts_time:102.68
lavfi.scene_score=0.466529
frame:86   pts:1328128 pts_time:103.76
lavfi.scene_score=0.500063
frame:87   pts:1340416 pts_time:104.72
lavfi.scene_score=0.291893
frame:88   pts:1357824 pts_time:106.08
lavfi.scene_score=0.488154
frame:89   pts:1367552 pts_time:106.84
lavfi.scene_score=0.526816
frame:90   pts:1374208 pts_time:107.36
lavfi.scene_score=0.473554
frame:91   pts:1388544 pts_time:108.48
lavfi.scene_score=0.410214
frame:92   pts:1403904 pts_time:109.68
lavfi.scene_score=0.340745
frame:93   pts:1419776 pts_time:110.92
lavfi.scene_score=0.434414
frame:94   pts:1434624 pts_time:112.08
lavfi.scene_score=0.277038
frame:95   pts:1450496 pts_time:113.32
lavfi.scene_score=0.383137
frame:96   pts:1462784 pts_time:114.28
lavfi.scene_score=0.311814
frame:97   pts:1479168 pts_time:115.56
lavfi.scene_score=0.328795
frame:98   pts:1486336 pts_time:116.12
lavfi.scene_score=0.383517
frame:99   pts:1499136 pts_time:117.12
lavfi.scene_score=0.266346
frame:100  pts:1511936 pts_time:118.12
lavfi.scene_score=0.542326
frame:101  pts:1523712 pts_time:119.04
lavfi.scene_score=0.454912
frame:102  pts:1542656 pts_time:120.52
lavfi.scene_score=0.534611
frame:103  pts:1548800 pts_time:121
lavfi.scene_score=0.480643
frame:104  pts:1555456 pts_time:121.52
lavfi.scene_score=0.489091
frame:105  pts:1563648 pts_time:122.16
lavfi.scene_score=0.405351
frame:106  pts:1571840 pts_time:122.8
lavfi.scene_score=0.426094
frame:107  pts:1582592 pts_time:123.64
lavfi.scene_score=0.328122
frame:108  pts:1592832 pts_time:124.44
lavfi.scene_score=0.355352
frame:109  pts:1601536 pts_time:125.12
lavfi.scene_score=0.414815
frame:110  pts:1613824 pts_time:126.08
lavfi.scene_score=0.444505
frame:111  pts:1621504 pts_time:126.68
lavfi.scene_score=0.341260
frame:112  pts:1630720 pts_time:127.4
lavfi.scene_score=0.313963
frame:113  pts:1641984 pts_time:128.28
lavfi.scene_score=0.264343
frame:114  pts:1657344 pts_time:129.48
lavfi.scene_score=0.250432
frame:115  pts:1676288 pts_time:130.96
lavfi.scene_score=0.800003
frame:116  pts:1676800 pts_time:131
lavfi.scene_score=0.371852
frame:117  pts:1693184 pts_time:132.28
lavfi.scene_score=0.498910
frame:118  pts:1706496 pts_time:133.32
lavfi.scene_score=0.545851
frame:119  pts:1729024 pts_time:135.08
lavfi.scene_score=0.250494
frame:120  pts:1732608 pts_time:135.36
lavfi.scene_score=0.418214
frame:121  pts:1739776 pts_time:135.92
lavfi.scene_score=0.543679
frame:122  pts:1758720 pts_time:137.4
lavfi.scene_score=0.567536
frame:123  pts:1766912 pts_time:138.04
lavfi.scene_score=0.657193
frame:124  pts:1785344 pts_time:139.48
lavfi.scene_score=0.630412
frame:125  pts:1795584 pts_time:140.28
lavfi.scene_score=0.475669
frame:126  pts:1823232 pts_time:142.44
lavfi.scene_score=0.595880
frame:127  pts:1833472 pts_time:143.24
lavfi.scene_score=0.565091
frame:128  pts:1844736 pts_time:144.12
lavfi.scene_score=0.578582
frame:129  pts:1856000 pts_time:145
lavfi.scene_score=0.396916
frame:130  pts:1857024 pts_time:145.08
lavfi.scene_score=0.597053
frame:131  pts:1858048 pts_time:145.16
lavfi.scene_score=0.322530
frame:132  pts:1879040 pts_time:146.8
lavfi.scene_score=0.688000
frame:133  pts:1885696 pts_time:147.32
lavfi.scene_score=0.473612
frame:134  pts:1892864 pts_time:147.88
lavfi.scene_score=0.591061
frame:135  pts:1907712 pts_time:149.04
lavfi.scene_score=0.486271
frame:136  pts:1918464 pts_time:149.88
lavfi.scene_score=0.461486
frame:137  pts:1929728 pts_time:150.76
lavfi.scene_score=0.399867
frame:138  pts:1930752 pts_time:150.84
lavfi.scene_score=0.391931
frame:139  pts:1938432 pts_time:151.44
lavfi.scene_score=0.522893
frame:140  pts:1939968 pts_time:151.56
lavfi.scene_score=0.490895
frame:141  pts:1947136 pts_time:152.12
lavfi.scene_score=0.453841
frame:142  pts:1955328 pts_time:152.76
lavfi.scene_score=0.559292
frame:143  pts:1956864 pts_time:152.88
lavfi.scene_score=0.796979
frame:144  pts:1968640 pts_time:153.8
lavfi.scene_score=0.560434
frame:145  pts:1970176 pts_time:153.92
lavfi.scene_score=0.334193
frame:146  pts:1996288 pts_time:155.96
lavfi.scene_score=0.627175
frame:147  pts:2012160 pts_time:157.2
lavfi.scene_score=0.698825
frame:148  pts:2027008 pts_time:158.36
lavfi.scene_score=0.757125
frame:149  pts:2056704 pts_time:160.68
lavfi.scene_score=0.598742
frame:150  pts:2071040 pts_time:161.8
lavfi.scene_score=0.720083
frame:151  pts:2072064 pts_time:161.88
lavfi.scene_score=0.286997
frame:152  pts:2086912 pts_time:163.04
lavfi.scene_score=0.424322
frame:153  pts:2224128 pts_time:173.76
lavfi.scene_score=0.541094
frame:154  pts:2227200 pts_time:174
lavfi.scene_score=0.529137
frame:155  pts:2237952 pts_time:174.84
lavfi.scene_score=0.262441
frame:156  pts:2254336 pts_time:176.12
lavfi.scene_score=0.282144
frame:157  pts:2267136 pts_time:177.12
lavfi.scene_score=0.483408
frame:158  pts:2286592 pts_time:178.64
lavfi.scene_score=0.450961
frame:159  pts:2348032 pts_time:183.44
lavfi.scene_score=0.379347
frame:160  pts:2407936 pts_time:188.12
lavfi.scene_score=0.374864
frame:161  pts:2436608 pts_time:190.36
lavfi.scene_score=0.280653
frame:162  pts:2446336 pts_time:191.12
lavfi.scene_score=0.319354
frame:163  pts:2467840 pts_time:192.8
lavfi.scene_score=0.372533
frame:164  pts:2475520 pts_time:193.4
lavfi.scene_score=0.319551
frame:165  pts:2505216 pts_time:195.72
lavfi.scene_score=0.288077
frame:166  pts:2521088 pts_time:196.96
lavfi.scene_score=0.277131
frame:167  pts:2527744 pts_time:197.48
lavfi.scene_score=0.443913
frame:168  pts:2538496 pts_time:198.32
lavfi.scene_score=0.265569
frame:169  pts:2545152 pts_time:198.84
lavfi.scene_score=0.270553
frame:170  pts:2555904 pts_time:199.68
lavfi.scene_score=0.393760
frame:171  pts:2567680 pts_time:200.6
lavfi.scene_score=0.362284
frame:172  pts:2585600 pts_time:202
lavfi.scene_score=0.497471
frame:173  pts:2603008 pts_time:203.36
lavfi.scene_score=0.498686
frame:174  pts:2618368 pts_time:204.56
lavfi.scene_score=0.515460
frame:175  pts:2629120 pts_time:205.4
lavfi.scene_score=0.413153
frame:176  pts:2653184 pts_time:207.28
lavfi.scene_score=1.000000
frame:177  pts:2704896 pts_time:211.32
lavfi.scene_score=0.558594
frame:178  pts:2736128 pts_time:213.76
lavfi.scene_score=0.548022
frame:179  pts:2753536 pts_time:215.12
lavfi.scene_score=0.410272
frame:180  pts:2767360 pts_time:216.2
lavfi.scene_score=0.574433
frame:181  pts:2770944 pts_time:216.48
lavfi.scene_score=0.522437
frame:182  pts:2786816 pts_time:217.72
lavfi.scene_score=0.538611
frame:183  pts:2800128 pts_time:218.76
lavfi.scene_score=0.365393
frame:184  pts:2824192 pts_time:220.64
lavfi.scene_score=0.716521
frame:185  pts:2847744 pts_time:222.48
lavfi.scene_score=0.775377
frame:186  pts:2863104 pts_time:223.68
lavfi.scene_score=0.643743
frame:187  pts:2870272 pts_time:224.24
lavfi.scene_score=0.616885
frame:188  pts:2880512 pts_time:225.04
lavfi.scene_score=0.576836
frame:189  pts:2889728 pts_time:225.76
lavfi.scene_score=0.656482
frame:190  pts:2912768 pts_time:227.56
lavfi.scene_score=0.700392
frame:191  pts:2927104 pts_time:228.68
lavfi.scene_score=1.000000
